<?xml version="1.0" encoding="UTF-8"?>
<!DOCTYPE svg PUBLIC "-//W3C//DTD SVG 1.1//EN" "http://www.w3.org/Graphics/SVG/1.1/DTD/svg11.dtd">
<svg xmlns="http://www.w3.org/2000/svg" version="1.1" width="1024px" height="1024px" style="shape-rendering:geometricPrecision; text-rendering:geometricPrecision; image-rendering:optimizeQuality; fill-rule:evenodd; clip-rule:evenodd" xmlns:xlink="http://www.w3.org/1999/xlink">
<g><path style="opacity:1" fill="#f2f2ed" d="M -0.5,-0.5 C 340.833,-0.5 682.167,-0.5 1023.5,-0.5C 1023.5,340.833 1023.5,682.167 1023.5,1023.5C 682.167,1023.5 340.833,1023.5 -0.5,1023.5C -0.5,682.167 -0.5,340.833 -0.5,-0.5 Z"/></g>
<g><path style="opacity:1" fill="#fcfaf7" d="M 959.5,847.5 C 959.831,620.127 959.498,392.793 958.5,165.5C 958.5,164.167 958.5,162.833 958.5,161.5C 960.041,165.328 960.874,169.995 961,175.5C 961.667,400.167 961.667,624.833 961,849.5C 960.722,848.584 960.222,847.918 959.5,847.5 Z"/></g>
<g><path style="opacity:1" fill="#16777e" d="M 958.5,165.5 C 959.498,392.793 959.831,620.127 959.5,847.5C 959.276,851.179 958.942,854.846 958.5,858.5C 957.167,627.5 957.167,396.5 958.5,165.5 Z"/></g>
<g><path style="opacity:1" fill="#fcfbf7" d="M 64.5,161.5 C 63.5059,392.152 63.1725,622.819 63.5,853.5C 62.4903,852.679 61.9903,850.346 62,846.5C 61.3333,622.167 61.3333,397.833 62,173.5C 62.3379,168.453 63.0046,163.453 64,158.5C 64.4828,159.448 64.6495,160.448 64.5,161.5 Z"/></g>
<g><path style="opacity:1" fill="#298188" d="M 854.5,62.5 C 910.613,72.9461 945.28,105.946 958.5,161.5C 958.5,162.833 958.5,164.167 958.5,165.5C 957.167,396.5 957.167,627.5 958.5,858.5C 947.156,915.844 912.822,950.178 855.5,961.5C 626.5,961.667 397.5,961.5 168.5,961C 160.045,959.636 151.712,957.802 143.5,955.5C 97.217,936.955 70.5504,902.955 63.5,853.5C 63.1725,622.819 63.5059,392.152 64.5,161.5C 76.7304,108.936 109.064,76.2696 161.5,63.5C 392.486,62.5058 623.486,62.1725 854.5,62.5 Z"/></g>
<g><path style="opacity:1" fill="#fcfbf8" d="M 362.5,611.5 C 362.5,617.5 362.5,623.5 362.5,629.5C 346.991,629.17 331.658,629.504 316.5,630.5C 316.5,638.5 316.5,646.5 316.5,654.5C 329.99,655.496 343.656,655.829 357.5,655.5C 357.5,661.167 357.5,666.833 357.5,672.5C 343.833,672.5 330.167,672.5 316.5,672.5C 329.087,671.501 342.42,671.168 356.5,671.5C 356.5,666.5 356.5,661.5 356.5,656.5C 342.829,656.667 329.163,656.5 315.5,656C 314.35,647.245 314.184,638.412 315,629.5C 330.089,628.509 345.255,628.176 360.5,628.5C 360.5,623.167 360.5,617.833 360.5,612.5C 339.167,612.5 317.833,612.5 296.5,612.5C 297.48,647.136 297.813,681.802 297.5,716.5C 319.167,716.5 340.833,716.5 362.5,716.5C 362.5,711.5 362.5,706.5 362.5,701.5C 346.991,701.83 331.658,701.496 316.5,700.5C 332.167,700.5 347.833,700.5 363.5,700.5C 363.5,706.5 363.5,712.5 363.5,718.5C 340.833,718.5 318.167,718.5 295.5,718.5C 295.5,682.833 295.5,647.167 295.5,611.5C 317.833,611.5 340.167,611.5 362.5,611.5 Z"/></g>
<g><path style="opacity:1" fill="#f1f2ed" d="M 151.5,692.5 C 166.636,691.14 172.136,697.806 168,712.5C 165.389,716.66 161.556,718.66 156.5,718.5C 146.756,717.048 142.923,711.381 145,701.5C 145.873,697.475 148.039,694.475 151.5,692.5 Z"/></g>
<g><path style="opacity:1" fill="#01636d" d="M 316.5,673.5 C 329.837,673.333 343.171,673.5 356.5,674C 343.504,674.5 330.504,674.667 317.5,674.5C 317.5,682.5 317.5,690.5 317.5,698.5C 332.837,698.333 348.17,698.5 363.5,699C 347.837,699.5 332.17,699.667 316.5,699.5C 316.5,690.833 316.5,682.167 316.5,673.5 Z"/></g>
<g><path style="opacity:1" fill="#257b81" d="M 273.5,718.5 C 273.5,682.833 273.5,647.167 273.5,611.5C 266.833,611.5 260.167,611.5 253.5,611.5C 253.667,635.836 253.5,660.169 253,684.5C 251.239,681.589 249.739,678.589 248.5,675.5C 249.79,676.058 250.623,677.058 251,678.5C 251.333,656.167 251.667,633.833 252,611.5C 252.5,611 253,610.5 253.5,610C 259.833,609.333 266.167,609.333 272.5,610C 273.308,610.308 273.975,610.808 274.5,611.5C 275.16,629.458 275.494,647.458 275.5,665.5C 275.5,683.513 274.833,701.18 273.5,718.5 Z"/></g>
<g><path style="opacity:1" fill="#4c9396" d="M 590.5,647.5 C 590.5,670.833 590.5,694.167 590.5,717.5C 589.833,694.5 589.167,671.5 588.5,648.5C 589.006,646.895 589.673,646.561 590.5,647.5 Z"/></g>
<g><path style="opacity:1" fill="#046972" d="M 588.5,648.5 C 589.167,671.5 589.833,694.5 590.5,717.5C 596.979,718.491 603.646,718.824 610.5,718.5C 604.005,719.821 596.839,719.821 589,718.5C 588.832,696.33 588.332,674.33 587.5,652.5C 587.833,651.167 588.167,649.833 588.5,648.5 Z"/></g>
<g><path style="opacity:1" fill="#14747b" d="M 362.5,611.5 C 340.167,611.5 317.833,611.5 295.5,611.5C 295.5,647.167 295.5,682.833 295.5,718.5C 318.167,718.5 340.833,718.5 363.5,718.5C 340.663,719.829 317.663,719.829 294.5,718.5C 293.34,682.875 293.174,647.208 294,611.5C 294.5,611 295,610.5 295.5,610C 317.5,609.333 339.5,609.333 361.5,610C 362.056,610.383 362.389,610.883 362.5,611.5 Z"/></g>
<g><path style="opacity:1" fill="#1f737c" d="M 551.5,693.5 C 544.108,680.388 536.941,667.054 530,653.5C 529.667,675.167 529.333,696.833 529,718.5C 521.735,719.827 514.568,719.827 507.5,718.5C 514.167,718.5 520.833,718.5 527.5,718.5C 527.333,694.498 527.5,670.498 528,646.5C 536.372,661.91 544.205,677.577 551.5,693.5 Z"/></g>
<g><path style="opacity:1" fill="#005f6b" d="M 188.5,611.5 C 188.333,646.835 188.5,682.168 189,717.5C 195.41,718.478 201.91,718.811 208.5,718.5C 202.339,719.821 195.506,719.821 188,718.5C 187.169,682.664 187.336,646.998 188.5,611.5 Z"/></g>
<g><path style="opacity:1" fill="#7aabac" d="M 457.5,629.5 C 457.5,630.167 457.167,630.5 456.5,630.5C 447.167,630.5 437.833,630.5 428.5,630.5C 428.5,659.5 428.5,688.5 428.5,717.5C 428.167,717.5 427.833,717.5 427.5,717.5C 427.5,688.167 427.5,658.833 427.5,629.5C 437.5,629.5 447.5,629.5 457.5,629.5 Z"/></g>
<g><path style="opacity:1" fill="#00616b" d="M 456.5,630.5 C 447.682,631.493 438.682,631.827 429.5,631.5C 429.831,660.338 429.498,689.005 428.5,717.5C 428.5,688.5 428.5,659.5 428.5,630.5C 437.833,630.5 447.167,630.5 456.5,630.5 Z"/></g>
<g><path style="opacity:1" fill="#045f6b" d="M 729.5,611.5 C 729.333,637.169 729.5,662.835 730,688.5C 730.822,691.117 731.322,693.784 731.5,696.5C 730.073,694.852 729.24,692.852 729,690.5C 728.17,663.997 728.337,637.663 729.5,611.5 Z"/></g>
<g><path style="opacity:1" fill="#04666e" d="M 406.5,630.5 C 406.5,659.833 406.5,689.167 406.5,718.5C 405.502,689.671 405.169,660.671 405.5,631.5C 395.828,631.666 386.161,631.5 376.5,631C 386.494,630.5 396.494,630.334 406.5,630.5 Z"/></g>
<g><path style="opacity:1" fill="#f1f2ec" d="M 316.5,672.5 C 316.5,672.833 316.5,673.167 316.5,673.5C 316.5,682.167 316.5,690.833 316.5,699.5C 316.5,699.833 316.5,700.167 316.5,700.5C 331.658,701.496 346.991,701.83 362.5,701.5C 362.5,706.5 362.5,711.5 362.5,716.5C 340.833,716.5 319.167,716.5 297.5,716.5C 297.813,681.802 297.48,647.136 296.5,612.5C 317.833,612.5 339.167,612.5 360.5,612.5C 360.5,617.833 360.5,623.167 360.5,628.5C 345.255,628.176 330.089,628.509 315,629.5C 314.184,638.412 314.35,647.245 315.5,656C 329.163,656.5 342.829,656.667 356.5,656.5C 356.5,661.5 356.5,666.5 356.5,671.5C 342.42,671.168 329.087,671.501 316.5,672.5 Z"/></g>
<g><path style="opacity:1" fill="#01636d" d="M 316.5,630.5 C 331.504,630.333 346.504,630.5 361.5,631C 346.837,631.5 332.17,631.667 317.5,631.5C 317.5,638.833 317.5,646.167 317.5,653.5C 330.837,653.333 344.171,653.5 357.5,654C 343.837,654.5 330.171,654.667 316.5,654.5C 316.5,646.5 316.5,638.5 316.5,630.5 Z"/></g>
<g><path style="opacity:1" fill="#f7f7f5" d="M 610.5,718.5 C 603.646,718.824 596.979,718.491 590.5,717.5C 590.5,694.167 590.5,670.833 590.5,647.5C 591.498,670.327 591.831,693.327 591.5,716.5C 597.5,716.5 603.5,716.5 609.5,716.5C 609.5,681.833 609.5,647.167 609.5,612.5C 602.492,612.334 595.492,612.5 588.5,613C 587.206,615.087 586.039,617.254 585,619.5C 584.536,618.906 584.369,618.239 584.5,617.5C 585.361,615.614 586.361,613.78 587.5,612C 595.493,611.5 603.493,611.334 611.5,611.5C 611.826,647.24 611.493,682.906 610.5,718.5 Z"/></g>
<g><path style="opacity:1" fill="#eff1ec" d="M 729.5,611.5 C 736.755,611.187 743.921,611.52 751,612.5C 751.333,637.833 751.667,663.167 752,688.5C 754.591,697.469 760.591,701.802 770,701.5C 779.321,702.016 785.654,698.016 789,689.5C 789.5,663.502 789.667,637.502 789.5,611.5C 796.833,611.5 804.167,611.5 811.5,611.5C 811.667,637.169 811.5,662.835 811,688.5C 808.927,703.905 800.427,713.739 785.5,718C 768.563,722.466 753.23,719.466 739.5,709C 736.435,705.023 733.768,700.856 731.5,696.5C 731.322,693.784 730.822,691.117 730,688.5C 729.5,662.835 729.333,637.169 729.5,611.5 Z"/></g>
<g><path style="opacity:1" fill="#f4f6f4" d="M 831.5,611.5 C 838.5,611.5 845.5,611.5 852.5,611.5C 852.5,647.167 852.5,682.833 852.5,718.5C 845.578,718.812 838.744,718.479 832,717.5C 831.5,682.168 831.333,646.835 831.5,611.5 Z"/></g>
<g><path style="opacity:1" fill="#f1f2ed" d="M 188.5,611.5 C 196.087,611.186 203.587,611.519 211,612.5C 223.023,633.894 235.523,654.894 248.5,675.5C 249.739,678.589 251.239,681.589 253,684.5C 253.5,660.169 253.667,635.836 253.5,611.5C 260.167,611.5 266.833,611.5 273.5,611.5C 273.5,647.167 273.5,682.833 273.5,718.5C 265.804,718.831 258.138,718.497 250.5,717.5C 237.726,695.604 224.726,673.937 211.5,652.5C 211.291,651.078 210.791,649.745 210,648.5C 209.5,671.498 209.333,694.498 209.5,717.5C 208.833,717.5 208.5,717.833 208.5,718.5C 201.91,718.811 195.41,718.478 189,717.5C 188.5,682.168 188.333,646.835 188.5,611.5 Z"/></g>
<g><path style="opacity:1" fill="#005d69" d="M 211.5,652.5 C 210.833,674.167 210.167,695.833 209.5,717.5C 209.333,694.498 209.5,671.498 210,648.5C 210.791,649.745 211.291,651.078 211.5,652.5 Z"/></g>
<g><path style="opacity:1" fill="#f1f1ec" d="M 833.5,612.5 C 839.5,612.5 845.5,612.5 851.5,612.5C 851.5,647.167 851.5,681.833 851.5,716.5C 845.5,716.5 839.5,716.5 833.5,716.5C 833.5,681.833 833.5,647.167 833.5,612.5 Z"/></g>
<g><path style="opacity:1" fill="#f2f2ed" d="M 659.5,611.5 C 668.418,611.183 677.251,611.516 686,612.5C 698.012,647.703 709.512,683.036 720.5,718.5C 713.137,718.831 705.803,718.497 698.5,717.5C 696.26,710.28 693.927,703.114 691.5,696C 678.5,695.333 665.5,695.333 652.5,696C 650.073,703.114 647.74,710.28 645.5,717.5C 638.532,718.497 631.532,718.83 624.5,718.5C 635.559,682.657 647.225,646.99 659.5,611.5 Z"/></g>
<g><path style="opacity:1" fill="#227078" d="M 675.5,644.5 C 674.041,643.34 672.874,641.34 672,638.5C 667.959,650.956 664.125,663.456 660.5,676C 668.912,676.801 677.245,676.634 685.5,675.5C 685.611,676.117 685.944,676.617 686.5,677C 677.149,677.832 667.816,677.665 658.5,676.5C 662.771,662.022 667.437,647.689 672.5,633.5C 673.969,637.043 674.969,640.709 675.5,644.5 Z"/></g>
<g><path style="opacity:1" fill="#298187" d="M 675.5,644.5 C 679.204,654.614 682.537,664.947 685.5,675.5C 677.245,676.634 668.912,676.801 660.5,676C 664.125,663.456 667.959,650.956 672,638.5C 672.874,641.34 674.041,643.34 675.5,644.5 Z"/></g>
<g><path style="opacity:1" fill="#f1f2ec" d="M 407.5,718.5 C 407.167,718.5 406.833,718.5 406.5,718.5C 406.5,689.167 406.5,659.833 406.5,630.5C 406.5,630.167 406.5,629.833 406.5,629.5C 397.014,628.506 387.348,628.173 377.5,628.5C 377.5,623.167 377.5,617.833 377.5,612.5C 403.833,612.5 430.167,612.5 456.5,612.5C 456.5,617.833 456.5,623.167 456.5,628.5C 446.5,628.5 436.5,628.5 426.5,628.5C 426.5,657.833 426.5,687.167 426.5,716.5C 420.5,716.5 414.5,716.5 408.5,716.5C 408.667,687.498 408.5,658.498 408,629.5C 407.5,659.165 407.333,688.831 407.5,718.5 Z"/></g>
<g><path style="opacity:1" fill="#f0f1ec" d="M 584.5,617.5 C 584.369,618.239 584.536,618.906 585,619.5C 586.039,617.254 587.206,615.087 588.5,613C 595.492,612.5 602.492,612.334 609.5,612.5C 609.5,647.167 609.5,681.833 609.5,716.5C 603.5,716.5 597.5,716.5 591.5,716.5C 591.831,693.327 591.498,670.327 590.5,647.5C 589.673,646.561 589.006,646.895 588.5,648.5C 588.167,649.833 587.833,651.167 587.5,652.5C 579.354,666.117 571.687,680.117 564.5,694.5C 559.909,696.021 555.576,695.688 551.5,693.5C 544.205,677.577 536.372,661.91 528,646.5C 527.5,670.498 527.333,694.498 527.5,718.5C 520.833,718.5 514.167,718.5 507.5,718.5C 506.507,682.906 506.174,647.24 506.5,611.5C 514.528,611.169 522.528,611.502 530.5,612.5C 539.833,629.833 549.167,647.167 558.5,664.5C 567.433,648.967 576.099,633.3 584.5,617.5 Z"/></g>
<g><path style="opacity:1" fill="#fdfcfb" d="M 457.5,629.5 C 447.5,629.5 437.5,629.5 427.5,629.5C 427.5,658.833 427.5,688.167 427.5,717.5C 421.021,718.491 414.354,718.824 407.5,718.5C 407.333,688.831 407.5,659.165 408,629.5C 408.5,658.498 408.667,687.498 408.5,716.5C 414.5,716.5 420.5,716.5 426.5,716.5C 426.5,687.167 426.5,657.833 426.5,628.5C 436.5,628.5 446.5,628.5 456.5,628.5C 456.5,623.167 456.5,617.833 456.5,612.5C 430.167,612.5 403.833,612.5 377.5,612.5C 377.5,617.833 377.5,623.167 377.5,628.5C 387.348,628.173 397.014,628.506 406.5,629.5C 396.167,629.5 385.833,629.5 375.5,629.5C 375.192,623.575 375.525,617.741 376.5,612C 403.498,611.5 430.498,611.333 457.5,611.5C 457.5,617.5 457.5,623.5 457.5,629.5 Z"/></g>
<g><path style="opacity:1" fill="#0a6772" d="M 831.5,524.5 C 833.411,524.574 834.578,525.574 835,527.5C 835.667,534.167 835.667,540.833 835,547.5C 834.215,549.286 833.049,550.786 831.5,552C 701.5,552.667 571.5,552.667 441.5,552C 571.001,551.833 700.334,551.333 829.5,550.5C 829.833,550.5 830.167,550.5 830.5,550.5C 831.458,550.047 832.292,549.381 833,548.5C 833.667,541.167 833.667,533.833 833,526.5C 832.283,525.956 831.783,525.289 831.5,524.5 Z"/></g>
<g><path style="opacity:1" fill="#f1f1ec" d="M 828.5,524.5 C 829.5,524.5 830.5,524.5 831.5,524.5C 831.783,525.289 832.283,525.956 833,526.5C 833.667,533.833 833.667,541.167 833,548.5C 832.292,549.381 831.458,550.047 830.5,550.5C 701.001,549.667 571.334,549.167 441.5,549C 440.333,548.5 439.5,547.667 439,546.5C 438.833,543.333 438.667,540.167 438.5,537C 438.55,533.397 439.217,530.064 440.5,527C 570.167,526.667 699.833,526.333 829.5,526C 828.944,525.617 828.611,525.117 828.5,524.5 Z"/></g>
<g><path style="opacity:1" fill="#fdfbf8" d="M 828.5,524.5 C 828.611,525.117 828.944,525.617 829.5,526C 699.833,526.333 570.167,526.667 440.5,527C 439.217,530.064 438.55,533.397 438.5,537C 438.667,540.167 438.833,543.333 439,546.5C 439.5,547.667 440.333,548.5 441.5,549C 571.334,549.167 701.001,549.667 830.5,550.5C 830.167,550.5 829.833,550.5 829.5,550.5C 699.5,550.667 569.5,550.5 439.5,550C 439,549.5 438.5,549 438,548.5C 437.333,541.167 437.333,533.833 438,526.5C 438.75,525.874 439.584,525.374 440.5,525C 569.833,524.5 699.166,524.333 828.5,524.5 Z"/></g>
<g><path style="opacity:1" fill="#056b75" d="M 461.5,512.5 C 577.5,512.5 693.5,512.5 809.5,512.5C 810.833,511.833 811.833,510.833 812.5,509.5C 812.5,509.167 812.5,508.833 812.5,508.5C 813.328,502.681 813.828,496.681 814,490.5C 814.667,496.833 814.667,503.167 814,509.5C 813.535,510.931 812.701,512.097 811.5,513C 694.666,513.833 577.999,513.666 461.5,512.5 Z"/></g>
<g><path style="opacity:1" fill="#25767e" d="M 419.5,507.5 C 420.332,508.329 419.999,509.162 418.5,510C 415.637,511.399 412.637,512.399 409.5,513C 390.995,513.829 372.662,513.662 354.5,512.5C 373.817,511.744 393.15,511.244 412.5,511C 415.139,510.347 417.473,509.18 419.5,507.5 Z"/></g>
<g><path style="opacity:1" fill="#21757d" d="M 139.5,509.5 C 140.922,509.709 142.255,510.209 143.5,511C 163.511,511.285 183.511,511.785 203.5,512.5C 184.338,513.662 165.004,513.829 145.5,513C 142.823,512.751 140.49,511.751 138.5,510C 138.728,509.601 139.062,509.435 139.5,509.5 Z"/></g>
<g><path style="opacity:1" fill="#edf1ed" d="M 462.5,486.5 C 578.874,486.171 695.207,486.504 811.5,487.5C 812.427,494.443 812.76,501.443 812.5,508.5C 812.5,508.833 812.5,509.167 812.5,509.5C 811.672,503.347 811.172,497.013 811,490.5C 810.5,490 810,489.5 809.5,489C 693.833,488.333 578.167,488.333 462.5,489C 461.52,496.079 461.187,503.245 461.5,510.5C 576.834,510.333 692.167,510.5 807.5,511C 808.416,511.278 809.082,511.778 809.5,512.5C 693.5,512.5 577.5,512.5 461.5,512.5C 459.936,508.384 459.27,504.05 459.5,499.5C 459.667,496.167 459.833,492.833 460,489.5C 461.045,488.627 461.878,487.627 462.5,486.5 Z"/></g>
<g><path style="opacity:1" fill="#f2f3ee" d="M 144.5,494.5 C 144.574,496.411 145.574,497.578 147.5,498C 164.5,498.333 181.5,498.667 198.5,499C 216.961,499.304 234.961,502.304 252.5,508C 259.276,510.554 265.609,513.887 271.5,518C 276.257,518.81 280.924,518.476 285.5,517C 303.229,507.15 322.229,501.483 342.5,500C 364.655,499.046 386.655,498.213 408.5,497.5C 410.833,497.167 412.167,495.833 412.5,493.5C 413.499,434.002 413.832,374.336 413.5,314.5C 414.333,365.332 414.833,416.332 415,467.5C 415.179,470.553 415.679,473.553 416.5,476.5C 417.425,477.641 418.259,477.641 419,476.5C 419.216,478.384 419.883,480.051 421,481.5C 421.414,481.043 421.914,480.709 422.5,480.5C 423.327,484.459 423.827,488.459 424,492.5C 424.167,432.665 424.667,372.999 425.5,313.5C 425.667,375.501 425.5,437.501 425,499.5C 424.074,501.692 422.907,503.692 421.5,505.5C 420.5,505.833 419.833,506.5 419.5,507.5C 417.473,509.18 415.139,510.347 412.5,511C 393.15,511.244 373.817,511.744 354.5,512.5C 336.045,512.824 318.378,516.657 301.5,524C 299.443,527.723 296.443,530.39 292.5,532C 281.177,535.917 270.177,535.25 259.5,530C 255.914,523.867 250.58,520.201 243.5,519C 230.35,515.669 217.017,513.503 203.5,512.5C 183.511,511.785 163.511,511.285 143.5,511C 142.255,510.209 140.922,509.709 139.5,509.5C 139.158,508.662 138.492,508.328 137.5,508.5C 134.731,505.221 132.564,501.555 131,497.5C 130.333,436.167 130.333,374.833 131,313.5C 135,309.5 139,309.5 143,313.5C 143.167,374.001 143.667,434.335 144.5,494.5 Z"/></g>
<g><path style="opacity:1" fill="#f1f2ec" d="M 812.5,509.5 C 811.833,510.833 810.833,511.833 809.5,512.5C 809.082,511.778 808.416,511.278 807.5,511C 692.167,510.5 576.834,510.333 461.5,510.5C 461.187,503.245 461.52,496.079 462.5,489C 578.167,488.333 693.833,488.333 809.5,489C 810,489.5 810.5,490 811,490.5C 811.172,497.013 811.672,503.347 812.5,509.5 Z"/></g>
<g><path style="opacity:1" fill="#005e69" d="M 811.5,487.5 C 695.207,486.504 578.874,486.171 462.5,486.5C 577.764,485.335 693.764,485.168 810.5,486C 811.056,486.383 811.389,486.883 811.5,487.5 Z"/></g>
<g><path style="opacity:1" fill="#f2f3ed" d="M 548.5,448.5 C 563.167,448.5 577.833,448.5 592.5,448.5C 592.666,456.507 592.5,464.507 592,472.5C 591.167,473.333 590.333,474.167 589.5,475C 576.504,475.5 563.504,475.667 550.5,475.5C 550.013,474.527 549.513,473.527 549,472.5C 548.5,464.507 548.334,456.507 548.5,448.5 Z"/></g>
<g><path style="opacity:1" fill="#23717a" d="M 550.5,475.5 C 563.504,475.667 576.504,475.5 589.5,475C 590.333,474.167 591.167,473.333 592,472.5C 592.5,464.507 592.666,456.507 592.5,448.5C 577.833,448.5 563.167,448.5 548.5,448.5C 562.755,447.501 577.755,447.168 593.5,447.5C 593.666,456.173 593.5,464.84 593,473.5C 592.167,474.333 591.333,475.167 590.5,476C 583.768,477.13 576.935,477.63 570,477.5C 563.833,477.333 557.667,477.167 551.5,477C 550.944,476.617 550.611,476.117 550.5,475.5 Z"/></g>
<g><path style="opacity:1" fill="#00606b" d="M 480.5,299.5 C 480.5,358.167 480.5,416.833 480.5,475.5C 479.501,417.336 479.168,359.002 479.5,300.5C 476.813,300.664 474.146,300.497 471.5,300C 474.482,299.502 477.482,299.335 480.5,299.5 Z"/></g>
<g><path style="opacity:1" fill="#f1f2ed" d="M 661.5,299.5 C 665.355,298.845 668.188,300.179 670,303.5C 678.214,358.164 686.381,412.831 694.5,467.5C 694.514,469.593 693.848,471.426 692.5,473C 688.486,473.39 684.486,473.89 680.5,474.5C 677.994,474.665 676.161,473.665 675,471.5C 667.113,416.626 658.947,361.792 650.5,307C 650.167,304.333 651.167,302.333 653.5,301C 656.365,300.817 659.031,300.317 661.5,299.5 Z"/></g>
<g><path style="opacity:1" fill="#8fb8b7" d="M 480.5,298.5 C 480.833,298.5 481.167,298.5 481.5,298.5C 481.5,357.167 481.5,415.833 481.5,474.5C 494.833,474.5 508.167,474.5 521.5,474.5C 508.01,475.496 494.344,475.829 480.5,475.5C 480.5,416.833 480.5,358.167 480.5,299.5C 480.5,299.167 480.5,298.833 480.5,298.5 Z"/></g>
<g><path style="opacity:1" fill="#046a73" d="M 144.5,494.5 C 143.667,434.335 143.167,374.001 143,313.5C 139,309.5 135,309.5 131,313.5C 130.333,374.833 130.333,436.167 131,497.5C 132.564,501.555 134.731,505.221 137.5,508.5C 134.096,506.423 131.596,503.423 130,499.5C 129.333,437.167 129.333,374.833 130,312.5C 134.708,307.316 139.375,307.316 144,312.5C 144.5,373.166 144.667,433.832 144.5,494.5 Z"/></g>
<g><path style="opacity:1" fill="#17757c" d="M 394.5,478.5 C 395.122,477.373 395.955,476.373 397,475.5C 397.667,413.5 397.667,351.5 397,289.5C 396.167,288.667 395.333,287.833 394.5,287C 383.505,286.5 372.505,286.333 361.5,286.5C 368.802,285.34 380.136,285.174 395.5,286C 397.049,287.214 398.215,288.714 399,290.5C 399.667,351.833 399.667,413.167 399,474.5C 398.252,476.751 396.752,478.084 394.5,478.5 Z"/></g>
<g><path style="opacity:1" fill="#f1f2ed" d="M 702.5,335.5 C 706.17,335.327 708.67,336.993 710,340.5C 717.59,381.117 724.923,421.784 732,462.5C 732.667,465.5 732.667,468.5 732,471.5C 725.934,474.712 719.434,475.879 712.5,475C 711.299,474.097 710.465,472.931 710,471.5C 702.667,430.833 695.333,390.167 688,349.5C 687.216,346.24 687.383,343.073 688.5,340C 693.364,338.791 698.031,337.291 702.5,335.5 Z"/></g>
<g><path style="opacity:1" fill="#fdfbf8" d="M 637.5,471.5 C 636.501,427.003 636.168,382.336 636.5,337.5C 627.167,337.5 617.833,337.5 608.5,337.5C 608.333,382.501 608.5,427.501 609,472.5C 609.75,473.126 610.584,473.626 611.5,474C 619.717,474.379 627.717,474.546 635.5,474.5C 626.912,475.636 618.245,475.802 609.5,475C 608.667,474.167 607.833,473.333 607,472.5C 606.5,427.168 606.333,381.835 606.5,336.5C 616.833,336.5 627.167,336.5 637.5,336.5C 637.5,381.5 637.5,426.5 637.5,471.5 Z"/></g>
<g><path style="opacity:1" fill="#056e77" d="M 522.5,299.5 C 525.518,299.335 528.518,299.502 531.5,300C 528.854,300.497 526.187,300.664 523.5,300.5C 523.667,358.501 523.5,416.501 523,474.5C 522.5,416.168 522.333,357.834 522.5,299.5 Z"/></g>
<g><path style="opacity:1" fill="#f0f1eb" d="M 416.5,310.5 C 420.155,309.925 423.155,310.925 425.5,313.5C 424.667,372.999 424.167,432.665 424,492.5C 423.827,488.459 423.327,484.459 422.5,480.5C 421.914,480.709 421.414,481.043 421,481.5C 419.883,480.051 419.216,478.384 419,476.5C 418.259,477.641 417.425,477.641 416.5,476.5C 415.679,473.553 415.179,470.553 415,467.5C 414.833,416.332 414.333,365.332 413.5,314.5C 413.771,312.57 414.771,311.236 416.5,310.5 Z"/></g>
<g><path style="opacity:1" fill="#006670" d="M 412.5,493.5 C 412.167,495.833 410.833,497.167 408.5,497.5C 409.122,496.373 409.955,495.373 411,494.5C 411.333,434.167 411.667,373.833 412,313.5C 412.5,373.499 412.667,433.499 412.5,493.5 Z"/></g>
<g><path style="opacity:1" fill="#14767d" d="M 158.5,289.5 C 158.333,351.501 158.5,413.501 159,475.5C 159.833,476.333 160.667,477.167 161.5,478C 173.843,478.381 186.176,478.881 198.5,479.5C 186.674,480.66 174.674,480.826 162.5,480C 159.572,478.74 157.739,476.573 157,473.5C 156.333,412.833 156.333,352.167 157,291.5C 157.278,290.584 157.778,289.918 158.5,289.5 Z"/></g>
<g><path style="opacity:1" fill="#f2f2ed" d="M 548.5,356.5 C 563.167,356.5 577.833,356.5 592.5,356.5C 592.5,383.5 592.5,410.5 592.5,437.5C 577.833,437.5 563.167,437.5 548.5,437.5C 548.5,410.5 548.5,383.5 548.5,356.5 Z"/></g>
<g><path style="opacity:1" fill="#367b82" d="M 421.5,505.5 C 422.907,503.692 424.074,501.692 425,499.5C 425.5,437.501 425.667,375.501 425.5,313.5C 423.155,310.925 420.155,309.925 416.5,310.5C 415.262,310.19 415.262,309.69 416.5,309C 421.026,308.181 424.526,309.681 427,313.5C 427.667,374.833 427.667,436.167 427,497.5C 426.108,500.952 424.442,503.952 422,506.5C 421.601,506.272 421.435,505.938 421.5,505.5 Z"/></g>
<g><path style="opacity:1" fill="#f1f2ec" d="M 637.5,471.5 C 637.068,472.71 636.401,473.71 635.5,474.5C 627.717,474.546 619.717,474.379 611.5,474C 610.584,473.626 609.75,473.126 609,472.5C 608.5,427.501 608.333,382.501 608.5,337.5C 617.833,337.5 627.167,337.5 636.5,337.5C 636.168,382.336 636.501,427.003 637.5,471.5 Z"/></g>
<g><path style="opacity:1" fill="#12747c" d="M 791.5,299.5 C 795.182,299.335 798.848,299.501 802.5,300C 799.518,300.498 796.518,300.665 793.5,300.5C 793.667,358.501 793.5,416.501 793,474.5C 786.07,475.814 778.904,476.481 771.5,476.5C 764.325,476.5 757.325,476.166 750.5,475.5C 764.167,475.5 777.833,475.5 791.5,475.5C 791.5,416.833 791.5,358.167 791.5,299.5 Z"/></g>
<g><path style="opacity:1" fill="#f0f1ec" d="M 550.5,323.5 C 563.504,323.333 576.504,323.5 589.5,324C 590.333,324.833 591.167,325.667 592,326.5C 592.5,332.825 592.666,339.158 592.5,345.5C 577.833,345.5 563.167,345.5 548.5,345.5C 548.334,339.158 548.5,332.825 549,326.5C 549.513,325.473 550.013,324.473 550.5,323.5 Z"/></g>
<g><path style="opacity:1" fill="#00626b" d="M 739.5,300.5 C 742.625,299.521 745.958,299.187 749.5,299.5C 749.667,358.168 749.5,416.834 749,475.5C 748.5,417.168 748.333,358.834 748.5,300.5C 745.5,300.5 742.5,300.5 739.5,300.5 Z"/></g>
<g><path style="opacity:1" fill="#f1f2ed" d="M 737.5,275.5 C 760.169,275.333 782.836,275.5 805.5,276C 806.044,276.717 806.711,277.217 807.5,277.5C 807.666,283.842 807.5,290.175 807,296.5C 806.5,297 806,297.5 805.5,298C 800.649,298.174 795.982,298.674 791.5,299.5C 790.624,299.369 789.957,299.702 789.5,300.5C 790.22,358.081 790.554,415.748 790.5,473.5C 777.5,473.5 764.5,473.5 751.5,473.5C 751.832,414.998 751.499,356.664 750.5,298.5C 746.154,298.666 741.821,298.499 737.5,298C 736.667,297.167 735.833,296.333 735,295.5C 734.333,289.833 734.333,284.167 735,278.5C 735.698,277.309 736.531,276.309 737.5,275.5 Z"/></g>
<g><path style="opacity:1" fill="#fefefd" d="M 296.5,304.5 C 296.938,304.435 297.272,304.601 297.5,305C 294.035,307.463 290.869,310.296 288,313.5C 287.171,375.237 287.338,436.904 288.5,498.5C 288.217,499.289 287.717,499.956 287,500.5C 286.333,437.833 286.333,375.167 287,312.5C 289.747,309.246 292.914,306.58 296.5,304.5 Z"/></g>
<g><path style="opacity:1" fill="#f3f3ee" d="M 609.5,299.5 C 617.84,299.334 626.173,299.5 634.5,300C 635.333,300.833 636.167,301.667 637,302.5C 637.5,309.826 637.666,317.159 637.5,324.5C 627.167,324.5 616.833,324.5 606.5,324.5C 606.334,317.159 606.5,309.826 607,302.5C 608.045,301.627 608.878,300.627 609.5,299.5 Z"/></g>
<g><path style="opacity:1" fill="#f6f8f7" d="M 750.5,298.5 C 751.499,356.664 751.832,414.998 751.5,473.5C 764.5,473.5 777.5,473.5 790.5,473.5C 790.554,415.748 790.22,358.081 789.5,300.5C 789.957,299.702 790.624,299.369 791.5,299.5C 791.5,358.167 791.5,416.833 791.5,475.5C 777.833,475.5 764.167,475.5 750.5,475.5C 750.5,416.5 750.5,357.5 750.5,298.5 Z"/></g>
<g><path style="opacity:1" fill="#fdfdfc" d="M 535.5,277.5 C 536.621,283.418 536.788,289.418 536,295.5C 535.167,296.333 534.333,297.167 533.5,298C 529.514,298.499 525.514,298.666 521.5,298.5C 521.5,357.167 521.5,415.833 521.5,474.5C 508.167,474.5 494.833,474.5 481.5,474.5C 481.5,415.833 481.5,357.167 481.5,298.5C 482.499,356.664 482.832,414.998 482.5,473.5C 495.167,473.5 507.833,473.5 520.5,473.5C 520.5,414.833 520.5,356.167 520.5,297.5C 524.182,297.665 527.848,297.499 531.5,297C 532.416,296.626 533.25,296.126 534,295.5C 534.172,289.319 534.672,283.319 535.5,277.5 Z"/></g>
<g><path style="opacity:1" fill="#f2f2ed" d="M 361.5,286.5 C 372.505,286.333 383.505,286.5 394.5,287C 395.333,287.833 396.167,288.667 397,289.5C 397.667,351.5 397.667,413.5 397,475.5C 395.955,476.373 395.122,477.373 394.5,478.5C 366.043,477.815 338.043,480.982 310.5,488C 302.745,490.712 295.412,494.212 288.5,498.5C 287.338,436.904 287.171,375.237 288,313.5C 290.869,310.296 294.035,307.463 297.5,305C 297.272,304.601 296.938,304.435 296.5,304.5C 309.597,296.298 323.93,291.131 339.5,289C 346.998,288.288 354.331,287.454 361.5,286.5 Z"/></g>
<g><path style="opacity:1" fill="#f2f2ed" d="M 198.5,479.5 C 186.176,478.881 173.843,478.381 161.5,478C 160.667,477.167 159.833,476.333 159,475.5C 158.5,413.501 158.333,351.501 158.5,289.5C 159.627,288.878 160.627,288.045 161.5,287C 191.663,284.401 220.997,288.067 249.5,298C 257.443,301.279 264.277,306.112 270,312.5C 270.667,375.167 270.667,437.833 270,500.5C 256.633,491.151 241.799,485.318 225.5,483C 216.541,481.438 207.541,480.271 198.5,479.5 Z"/></g>
<g><path style="opacity:1" fill="#f1f2ec" d="M 535.5,277.5 C 534.672,283.319 534.172,289.319 534,295.5C 533.25,296.126 532.416,296.626 531.5,297C 527.848,297.499 524.182,297.665 520.5,297.5C 520.5,356.167 520.5,414.833 520.5,473.5C 507.833,473.5 495.167,473.5 482.5,473.5C 482.832,414.998 482.499,356.664 481.5,298.5C 481.167,298.5 480.833,298.5 480.5,298.5C 476.486,298.666 472.486,298.499 468.5,298C 467.667,297.167 466.833,296.333 466,295.5C 465.333,289.5 465.333,283.5 466,277.5C 466.5,277 467,276.5 467.5,276C 489.833,275.333 512.167,275.333 534.5,276C 535.056,276.383 535.389,276.883 535.5,277.5 Z"/></g>
<g><path style="opacity:1" fill="#317982" d="M 807.5,277.5 C 806.711,277.217 806.044,276.717 805.5,276C 782.836,275.5 760.169,275.333 737.5,275.5C 737.062,275.565 736.728,275.399 736.5,275C 737.167,274.667 737.833,274.333 738.5,274C 760.5,273.333 782.5,273.333 804.5,274C 806.426,274.422 807.426,275.589 807.5,277.5 Z"/></g>
<g><path style="opacity:1" fill="#f3f5f3" d="M 437.5,240.5 C 438.239,240.369 438.906,240.536 439.5,241C 436.833,246.333 436.833,251.667 439.5,257C 571.078,257.495 702.412,257.662 833.5,257.5C 833.082,258.222 832.416,258.722 831.5,259C 700.833,259.667 570.167,259.667 439.5,259C 438.667,258.167 437.833,257.333 437,256.5C 436.219,251.083 436.385,245.75 437.5,240.5 Z"/></g>
<g><path style="opacity:1" fill="#f2f2ed" d="M 833.5,257.5 C 702.412,257.662 571.078,257.495 439.5,257C 436.833,251.667 436.833,246.333 439.5,241C 438.906,240.536 438.239,240.369 437.5,240.5C 439.647,238.53 441.98,236.697 444.5,235C 506.5,199.333 568.5,163.667 630.5,128C 636.268,126.775 641.601,127.775 646.5,131C 708.004,166.586 769.67,201.92 831.5,237C 833.049,238.214 834.215,239.714 835,241.5C 835.667,246.167 835.667,250.833 835,255.5C 834.722,256.416 834.222,257.082 833.5,257.5 Z"/></g>
<g><path style="opacity:1" fill="#16767e" d="M 761.5,227.5 C 764.09,228.128 766.423,229.295 768.5,231C 680.167,231.667 591.833,231.667 503.5,231C 504.527,230.487 505.527,229.987 506.5,229.5C 591.834,229.667 677.167,229.5 762.5,229C 761.944,228.617 761.611,228.117 761.5,227.5 Z"/></g>
<g><path style="opacity:1" fill="#298188" d="M 761.5,227.5 C 761.611,228.117 761.944,228.617 762.5,229C 677.167,229.5 591.834,229.667 506.5,229.5C 549.034,204.065 592.034,179.398 635.5,155.5C 678.128,178.478 720.128,202.478 761.5,227.5 Z"/></g>
<g><path style="opacity:1" fill="#e9efee" d="M 854.5,62.5 C 623.486,62.1725 392.486,62.5058 161.5,63.5C 164.295,61.9514 167.961,61.118 172.5,61C 398.833,60.3333 625.167,60.3333 851.5,61C 853.5,61.3333 855.5,61.6667 857.5,62C 856.552,62.4828 855.552,62.6495 854.5,62.5 Z"/></g>
<g><path style="opacity:1" fill="#026771" d="M 178.5,768.5 C 176.833,768.5 175.167,768.5 173.5,768.5C 159.006,767.669 144.339,767.169 129.5,767C 145.167,766.333 160.833,766.333 176.5,767C 177.833,767.333 179.167,767.667 180.5,768C 179.906,768.464 179.239,768.631 178.5,768.5 Z"/></g>
<g><path style="opacity:1" fill="#016671" d="M 553.5,768.5 C 552.512,773.64 552.179,778.974 552.5,784.5C 551.175,778.766 551.175,772.932 552.5,767C 577.5,766.333 602.5,766.333 627.5,767C 602.663,767.168 577.997,767.668 553.5,768.5 Z"/></g>
<g><path style="opacity:1" fill="#f3f5f2" d="M 319.5,776.5 C 314.538,772.693 308.872,770.527 302.5,770C 287.837,769.5 273.17,769.333 258.5,769.5C 258.5,800.833 258.5,832.167 258.5,863.5C 270.838,863.333 283.171,863.5 295.5,864C 282.993,864.169 270.66,864.669 258.5,865.5C 256.507,833.517 255.841,801.184 256.5,768.5C 273.17,768.333 289.837,768.5 306.5,769C 311.804,769.98 316.137,772.48 319.5,776.5 Z"/></g>
<g><path style="opacity:1" fill="#f1f2ed" d="M 319.5,776.5 C 325.54,781.788 327.706,788.454 326,796.5C 324.474,805.03 319.641,810.863 311.5,814C 326.553,819.265 332.386,829.765 329,845.5C 324.897,857.646 316.397,864.146 303.5,865C 288.504,865.5 273.504,865.667 258.5,865.5C 270.66,864.669 282.993,864.169 295.5,864C 283.171,863.5 270.838,863.333 258.5,863.5C 258.5,832.167 258.5,800.833 258.5,769.5C 273.17,769.333 287.837,769.5 302.5,770C 308.872,770.527 314.538,772.693 319.5,776.5 Z"/></g>
<g><path style="opacity:1" fill="#f1f2ed" d="M 173.5,768.5 C 175.167,768.5 176.833,768.5 178.5,768.5C 197.523,774.559 203.023,786.892 195,805.5C 191.79,809.187 187.956,812.021 183.5,814C 199.7,819.562 205.533,830.728 201,847.5C 199.451,851.87 196.951,855.537 193.5,858.5C 188.766,862.03 183.433,864.197 177.5,865C 161.328,865.828 145.328,865.661 129.5,864.5C 129.5,832.5 129.5,800.5 129.5,768.5C 144.167,768.5 158.833,768.5 173.5,768.5 Z"/></g>
<g><path style="opacity:1" fill="#fefdfb" d="M 235.5,768.5 C 236.167,768.5 236.5,768.833 236.5,769.5C 236.5,801.5 236.5,833.5 236.5,865.5C 230.167,865.5 223.833,865.5 217.5,865.5C 217.5,833.167 217.5,800.833 217.5,768.5C 223.5,768.5 229.5,768.5 235.5,768.5 Z"/></g>
<g><path style="opacity:1" fill="#f1f2ec" d="M 218.5,769.5 C 224.176,769.334 229.843,769.501 235.5,770C 235.485,800.959 235.485,832.125 235.5,863.5C 229.833,863.5 224.167,863.5 218.5,863.5C 218.5,832.167 218.5,800.833 218.5,769.5 Z"/></g>
<g><path style="opacity:1" fill="#f1f1ec" d="M 405.5,848.5 C 406.833,853.833 406.833,859.167 405.5,864.5C 385.853,863.576 366.187,863.243 346.5,863.5C 346.5,832.167 346.5,800.833 346.5,769.5C 351.833,769.5 357.167,769.5 362.5,769.5C 362.333,795.835 362.5,822.169 363,848.5C 377,849.167 391,849.833 405,850.5C 405.464,849.906 405.631,849.239 405.5,848.5 Z"/></g>
<g><path style="opacity:1" fill="#f2f2ed" d="M 420.5,768.5 C 426.833,768.5 433.167,768.5 439.5,768.5C 439.5,800.833 439.5,833.167 439.5,865.5C 433.167,865.5 426.833,865.5 420.5,865.5C 420.5,833.167 420.5,800.833 420.5,768.5 Z"/></g>
<g><path style="opacity:1" fill="#f0f1ec" d="M 553.5,768.5 C 578.5,768.5 603.5,768.5 628.5,768.5C 628.786,774.259 628.452,779.925 627.5,785.5C 618.5,785.5 609.5,785.5 600.5,785.5C 600.5,811.5 600.5,837.5 600.5,863.5C 600.389,864.117 600.056,864.617 599.5,865C 592.986,865.82 586.653,865.653 580.5,864.5C 580.5,838.167 580.5,811.833 580.5,785.5C 571.5,785.5 562.5,785.5 553.5,785.5C 553.5,784.833 553.167,784.5 552.5,784.5C 552.179,778.974 552.512,773.64 553.5,768.5 Z"/></g>
<g><path style="opacity:1" fill="#f0f1ec" d="M 659.5,807.5 C 659.833,807.5 660.167,807.5 660.5,807.5C 673.167,807.5 685.833,807.5 698.5,807.5C 698.5,813.167 698.5,818.833 698.5,824.5C 685.833,824.5 673.167,824.5 660.5,824.5C 660.5,832.5 660.5,840.5 660.5,848.5C 674.5,848.5 688.5,848.5 702.5,848.5C 688.673,849.331 674.673,849.831 660.5,850C 674.496,850.5 688.496,850.667 702.5,850.5C 702.5,854.833 702.5,859.167 702.5,863.5C 682.5,863.5 662.5,863.5 642.5,863.5C 642.5,832.167 642.5,800.833 642.5,769.5C 662.5,769.5 682.5,769.5 702.5,769.5C 702.5,774.167 702.5,778.833 702.5,783.5C 687.833,783.5 673.167,783.5 658.5,783.5C 658.168,792.255 658.501,800.255 659.5,807.5 Z"/></g>
<g><path style="opacity:1" fill="#f1f2ed" d="M 860.5,844.5 C 848.833,844.5 837.167,844.5 825.5,844.5C 825.5,845.5 825.5,846.5 825.5,847.5C 823.133,852.928 821.133,858.595 819.5,864.5C 813.202,865.496 806.868,865.83 800.5,865.5C 810.296,834.111 820.296,802.778 830.5,771.5C 831.404,770.791 831.737,769.791 831.5,768.5C 839.752,768.184 847.919,768.518 856,769.5C 867.339,801.349 878.172,833.349 888.5,865.5C 881.468,865.83 874.468,865.497 867.5,864.5C 865.149,857.719 862.815,851.052 860.5,844.5 Z"/></g>
<g><path style="opacity:1" fill="#f1f2ed" d="M 489.5,766.5 C 517.949,763.13 536.116,775.13 544,802.5C 548.952,824.549 543.452,843.382 527.5,859C 505.02,872.112 484.52,869.612 466,851.5C 454.349,832.917 452.349,813.25 460,792.5C 466.102,779.542 475.935,770.876 489.5,766.5 Z"/></g>
<g><path style="opacity:1" fill="#f1f2ed" d="M 747.5,766.5 C 765.357,763.28 779.857,768.613 791,782.5C 794.085,787.38 795.252,792.546 794.5,798C 788.5,798.667 782.5,798.667 776.5,798C 770.348,783.212 760.014,779.212 745.5,786C 738.952,791.625 735.452,798.791 735,807.5C 733.895,818.046 734.895,828.379 738,838.5C 745.646,851.148 756.146,853.982 769.5,847C 772.345,843.639 774.679,839.972 776.5,836C 782.749,835.191 788.916,835.358 795,836.5C 792.859,852.648 783.693,862.481 767.5,866C 739.827,870.758 722.661,859.591 716,832.5C 711.881,813.876 714.881,796.543 725,780.5C 731.08,773.385 738.58,768.719 747.5,766.5 Z"/></g>
<g><path style="opacity:1" fill="#fafaf6" d="M 703.5,784.5 C 688.833,784.5 674.167,784.5 659.5,784.5C 659.5,792.167 659.5,799.833 659.5,807.5C 658.501,800.255 658.168,792.255 658.5,783.5C 673.167,783.5 687.833,783.5 702.5,783.5C 702.5,778.833 702.5,774.167 702.5,769.5C 682.5,769.5 662.5,769.5 642.5,769.5C 642.5,800.833 642.5,832.167 642.5,863.5C 662.5,863.5 682.5,863.5 702.5,863.5C 702.5,859.167 702.5,854.833 702.5,850.5C 688.496,850.667 674.496,850.5 660.5,850C 674.673,849.831 688.673,849.331 702.5,848.5C 702.833,848.5 703.167,848.5 703.5,848.5C 704.811,854 704.811,859.5 703.5,865C 682.594,865.826 661.76,865.66 641,864.5C 640.5,832.502 640.333,800.502 640.5,768.5C 661.833,768.5 683.167,768.5 704.5,768.5C 704.821,774.026 704.488,779.36 703.5,784.5 Z"/></g>
<g><path style="opacity:1" fill="#298087" d="M 148.5,783.5 C 156.561,783.179 164.561,783.679 172.5,785C 176.802,786.935 178.802,790.268 178.5,795C 178.883,800.233 176.55,803.566 171.5,805C 163.905,806.356 156.238,806.856 148.5,806.5C 148.5,798.833 148.5,791.167 148.5,783.5 Z"/></g>
<g><path style="opacity:1" fill="#298087" d="M 493.5,783.5 C 512.653,782.139 523.153,791.139 525,810.5C 525.854,819.047 524.854,827.381 522,835.5C 516.703,847.499 507.536,852.332 494.5,850C 482.966,845.101 476.799,836.268 476,823.5C 473.794,808.785 477.961,796.285 488.5,786C 490.315,785.243 491.981,784.41 493.5,783.5 Z"/></g>
<g><path style="opacity:1" fill="#005e69" d="M 627.5,785.5 C 619.016,786.493 610.349,786.826 601.5,786.5C 601.831,812.339 601.498,838.005 600.5,863.5C 600.5,837.5 600.5,811.5 600.5,785.5C 609.5,785.5 618.5,785.5 627.5,785.5 Z"/></g>
<g><path style="opacity:1" fill="#015f6a" d="M 703.5,785.5 C 689.677,786.496 675.677,786.829 661.5,786.5C 661.5,793.167 661.5,799.833 661.5,806.5C 674.011,806.171 686.345,806.505 698.5,807.5C 685.833,807.5 673.167,807.5 660.5,807.5C 660.5,800.167 660.5,792.833 660.5,785.5C 674.833,785.5 689.167,785.5 703.5,785.5 Z"/></g>
<g><path style="opacity:1" fill="#2a8188" d="M 298.5,784.5 C 305.436,786.703 307.936,791.369 306,798.5C 303.131,803.853 298.631,806.52 292.5,806.5C 287.695,805.513 282.695,805.179 277.5,805.5C 277.5,798.833 277.5,792.167 277.5,785.5C 284.687,785.825 291.687,785.491 298.5,784.5 Z"/></g>
<g><path style="opacity:1" fill="#02616c" d="M 295.5,784.5 C 296.5,784.5 297.5,784.5 298.5,784.5C 291.687,785.491 284.687,785.825 277.5,785.5C 277.5,792.167 277.5,798.833 277.5,805.5C 282.695,805.179 287.695,805.513 292.5,806.5C 287.167,806.5 281.833,806.5 276.5,806.5C 276.5,799.167 276.5,791.833 276.5,784.5C 282.833,784.5 289.167,784.5 295.5,784.5 Z"/></g>
<g><path style="opacity:1" fill="#a2c1c0" d="M 703.5,784.5 C 703.5,784.833 703.5,785.167 703.5,785.5C 689.167,785.5 674.833,785.5 660.5,785.5C 660.5,792.833 660.5,800.167 660.5,807.5C 660.167,807.5 659.833,807.5 659.5,807.5C 659.5,799.833 659.5,792.167 659.5,784.5C 674.167,784.5 688.833,784.5 703.5,784.5 Z"/></g>
<g><path style="opacity:1" fill="#70a5a7" d="M 295.5,784.5 C 289.167,784.5 282.833,784.5 276.5,784.5C 276.5,791.833 276.5,799.167 276.5,806.5C 275.508,799.018 275.175,791.352 275.5,783.5C 282.354,783.176 289.021,783.509 295.5,784.5 Z"/></g>
<g><path style="opacity:1" fill="#00626d" d="M 553.5,785.5 C 562.5,785.5 571.5,785.5 580.5,785.5C 580.5,811.833 580.5,838.167 580.5,864.5C 579.502,838.672 579.169,812.672 579.5,786.5C 570.651,786.826 561.984,786.493 553.5,785.5 Z"/></g>
<g><path style="opacity:1" fill="#02656f" d="M 364.5,847.5 C 364.5,821.167 364.5,794.833 364.5,768.5C 365.499,793.759 365.833,819.759 365.5,846.5C 378.837,846.333 392.171,846.5 405.5,847C 391.837,847.5 378.171,847.667 364.5,847.5 Z"/></g>
<g><path style="opacity:1" fill="#297f86" d="M 842.5,788.5 C 843.649,788.791 844.316,789.624 844.5,791C 848.203,803.274 852.203,815.441 856.5,827.5C 848.193,828.498 839.86,828.831 831.5,828.5C 835.169,815.161 838.836,801.827 842.5,788.5 Z"/></g>
<g><path style="opacity:1" fill="#288087" d="M 148.5,822.5 C 157.25,822.09 165.916,822.59 174.5,824C 179.893,826.105 182.56,830.105 182.5,836C 182.459,842.424 179.459,846.758 173.5,849C 165.173,849.5 156.84,849.666 148.5,849.5C 148.5,840.5 148.5,831.5 148.5,822.5 Z"/></g>
<g><path style="opacity:1" fill="#2a8188" d="M 297.5,822.5 C 307.945,824.71 311.778,831.043 309,841.5C 306.869,845.98 303.369,848.647 298.5,849.5C 291.687,848.509 284.687,848.175 277.5,848.5C 277.5,840.167 277.5,831.833 277.5,823.5C 284.354,823.824 291.021,823.491 297.5,822.5 Z"/></g>
<g><path style="opacity:1" fill="#fcfbf8" d="M 364.5,768.5 C 364.5,794.833 364.5,821.167 364.5,847.5C 377.99,848.496 391.656,848.829 405.5,848.5C 405.631,849.239 405.464,849.906 405,850.5C 391,849.833 377,849.167 363,848.5C 362.5,822.169 362.333,795.835 362.5,769.5C 357.167,769.5 351.833,769.5 346.5,769.5C 346.5,800.833 346.5,832.167 346.5,863.5C 366.187,863.243 385.853,863.576 405.5,864.5C 385.674,865.497 365.674,865.83 345.5,865.5C 345.5,833.167 345.5,800.833 345.5,768.5C 351.833,768.5 358.167,768.5 364.5,768.5 Z"/></g>
<g><path style="opacity:1" fill="#01606b" d="M 276.5,822.5 C 283.5,822.5 290.5,822.5 297.5,822.5C 291.021,823.491 284.354,823.824 277.5,823.5C 277.5,831.833 277.5,840.167 277.5,848.5C 284.687,848.175 291.687,848.509 298.5,849.5C 297.833,849.5 297.167,849.5 296.5,849.5C 289.833,849.5 283.167,849.5 276.5,849.5C 276.5,840.5 276.5,831.5 276.5,822.5 Z"/></g>
<g><path style="opacity:1" fill="#066d77" d="M 236.5,769.5 C 236.5,768.833 236.167,768.5 235.5,768.5C 229.681,767.672 223.681,767.172 217.5,767C 223.833,766.333 230.167,766.333 236.5,767C 237,767.5 237.5,768 238,768.5C 238.667,800.5 238.667,832.5 238,864.5C 237.832,832.664 237.332,800.997 236.5,769.5 Z"/></g>
<g><path style="opacity:1" fill="#015e69" d="M 860.5,844.5 C 849.346,845.495 838.012,845.828 826.5,845.5C 826.754,847.401 826.42,848.067 825.5,847.5C 825.5,846.5 825.5,845.5 825.5,844.5C 837.167,844.5 848.833,844.5 860.5,844.5 Z"/></g>
<g><path style="opacity:1" fill="#00626e" d="M 698.5,824.5 C 686.345,825.495 674.011,825.829 661.5,825.5C 661.5,832.833 661.5,840.167 661.5,847.5C 676.246,847.168 690.246,847.501 703.5,848.5C 703.167,848.5 702.833,848.5 702.5,848.5C 688.5,848.5 674.5,848.5 660.5,848.5C 660.5,840.5 660.5,832.5 660.5,824.5C 673.167,824.5 685.833,824.5 698.5,824.5 Z"/></g>
<g><path style="opacity:1" fill="#99bdbc" d="M 276.5,822.5 C 276.5,831.5 276.5,840.5 276.5,849.5C 283.167,849.5 289.833,849.5 296.5,849.5C 289.687,850.491 282.687,850.825 275.5,850.5C 275.173,840.985 275.506,831.652 276.5,822.5 Z"/></g>
<g><path style="opacity:1" fill="#166d76" d="M 830.5,771.5 C 820.296,802.778 810.296,834.111 800.5,865.5C 799.387,864.054 799.22,862.387 800,860.5C 809.883,829.998 820.05,800.331 830.5,771.5 Z"/></g>
<g><path style="opacity:1" fill="#086770" d="M 193.5,858.5 C 194.332,859.329 193.999,860.162 192.5,861C 188.475,863.514 184.141,865.181 179.5,866C 162.49,866.833 145.49,866.666 128.5,865.5C 128.624,864.893 128.957,864.56 129.5,864.5C 145.328,865.661 161.328,865.828 177.5,865C 183.433,864.197 188.766,862.03 193.5,858.5 Z"/></g>
<g><path style="opacity:1" fill="#f7f8f4" d="M 143.5,955.5 C 151.712,957.802 160.045,959.636 168.5,961C 397.5,961.5 626.5,961.667 855.5,961.5C 854.307,962.479 851.64,962.979 847.5,963C 623.167,963.667 398.833,963.667 174.5,963C 163.513,962.069 152.846,959.736 142.5,956C 142.728,955.601 143.062,955.435 143.5,955.5 Z"/></g>
</svg>
